<svg width="276" height="91" viewBox="0 0 276 91" fill="none" xmlns="http://www.w3.org/2000/svg">
<path d="M28 80H270V85C270 88.3137 267.314 91 264 91H34C30.6863 91 28 88.3137 28 85V80Z" fill="#FF6E6E"/>
<g filter="url(#filter0_d_77_79)">
<path d="M30 81H268C268 82.1046 267.105 83 266 83H32C30.8954 83 30 82.1046 30 81Z" fill="white"/>
</g>
<g filter="url(#filter1_d_77_79)">
<path d="M32 83H266C266 84.1046 265.105 85 264 85H34C32.8954 85 32 84.1046 32 83Z" fill="white"/>
</g>
<g filter="url(#filter2_d_77_79)">
<path d="M34 85H264C264 86.1046 263.105 87 262 87H36C34.8954 87 34 86.1046 34 85Z" fill="white"/>
</g>
<g filter="url(#filter3_d_77_79)">
<path d="M268 1C271.314 1 274 3.68629 274 7V75C274 78.3137 271.314 81 268 81H30C26.6863 81 24 78.3137 24 75V7C24 3.68629 26.6863 1 30 1H268ZM43 32C38.0294 32 34 36.0294 34 41C34 45.9706 38.0294 50 43 50C47.9706 50 52 45.9706 52 41C52 36.0294 47.9706 32 43 32Z" fill="#FF6E6E"/>
</g>
<rect x="65.9993" y="11" width="194" height="60" rx="5" fill="white"/>
<rect x="72.1047" y="17.3572" width="181.789" height="47.2857" rx="4" stroke="#6186E3" stroke-width="2"/>
<path d="M14.5661 44.7051C22.6107 37.1359 33.7341 35.8911 39.411 41.9245C41.4558 44.0978 42.5144 46.919 42.6568 49.9931C41.1493 49.9365 39.7367 49.5099 38.508 48.8C38.2076 47.1439 37.5114 45.7429 36.4977 44.6655C34.7156 42.7714 31.8763 41.7915 28.3216 42.1892C24.7653 42.5872 20.76 44.3694 17.3071 47.6183C13.8542 50.8671 11.8315 54.7565 11.2178 58.282C10.6045 61.8059 11.4098 64.6995 13.192 66.5937C14.9742 68.4878 17.8135 69.4678 21.3682 69.07C22.2239 68.9742 23.1054 68.7973 23.9992 68.5401L23.9991 72.6714C18.7022 73.8861 13.5733 72.8362 10.2788 69.3347C4.60198 63.3012 6.52145 52.2742 14.5661 44.7051ZM34.9986 61L34.7802 61.0003C34.8545 60.904 34.9276 60.8074 34.9998 60.7106L34.9986 61Z" fill="#888888"/>
<defs>
<filter id="filter0_d_77_79" x="29" y="80" width="240" height="4" filterUnits="userSpaceOnUse" color-interpolation-filters="sRGB">
<feFlood flood-opacity="0" result="BackgroundImageFix"/>
<feColorMatrix in="SourceAlpha" type="matrix" values="0 0 0 0 0 0 0 0 0 0 0 0 0 0 0 0 0 0 127 0" result="hardAlpha"/>
<feOffset/>
<feGaussianBlur stdDeviation="0.5"/>
<feComposite in2="hardAlpha" operator="out"/>
<feColorMatrix type="matrix" values="0 0 0 0 0 0 0 0 0 0 0 0 0 0 0 0 0 0 0.25 0"/>
<feBlend mode="normal" in2="BackgroundImageFix" result="effect1_dropShadow_77_79"/>
<feBlend mode="normal" in="SourceGraphic" in2="effect1_dropShadow_77_79" result="shape"/>
</filter>
<filter id="filter1_d_77_79" x="31" y="82" width="236" height="4" filterUnits="userSpaceOnUse" color-interpolation-filters="sRGB">
<feFlood flood-opacity="0" result="BackgroundImageFix"/>
<feColorMatrix in="SourceAlpha" type="matrix" values="0 0 0 0 0 0 0 0 0 0 0 0 0 0 0 0 0 0 127 0" result="hardAlpha"/>
<feOffset/>
<feGaussianBlur stdDeviation="0.5"/>
<feComposite in2="hardAlpha" operator="out"/>
<feColorMatrix type="matrix" values="0 0 0 0 0 0 0 0 0 0 0 0 0 0 0 0 0 0 0.25 0"/>
<feBlend mode="normal" in2="BackgroundImageFix" result="effect1_dropShadow_77_79"/>
<feBlend mode="normal" in="SourceGraphic" in2="effect1_dropShadow_77_79" result="shape"/>
</filter>
<filter id="filter2_d_77_79" x="33" y="84" width="232" height="4" filterUnits="userSpaceOnUse" color-interpolation-filters="sRGB">
<feFlood flood-opacity="0" result="BackgroundImageFix"/>
<feColorMatrix in="SourceAlpha" type="matrix" values="0 0 0 0 0 0 0 0 0 0 0 0 0 0 0 0 0 0 127 0" result="hardAlpha"/>
<feOffset/>
<feGaussianBlur stdDeviation="0.5"/>
<feComposite in2="hardAlpha" operator="out"/>
<feColorMatrix type="matrix" values="0 0 0 0 0 0 0 0 0 0 0 0 0 0 0 0 0 0 0.25 0"/>
<feBlend mode="normal" in2="BackgroundImageFix" result="effect1_dropShadow_77_79"/>
<feBlend mode="normal" in="SourceGraphic" in2="effect1_dropShadow_77_79" result="shape"/>
</filter>
<filter id="filter3_d_77_79" x="22" y="0" width="254" height="84" filterUnits="userSpaceOnUse" color-interpolation-filters="sRGB">
<feFlood flood-opacity="0" result="BackgroundImageFix"/>
<feColorMatrix in="SourceAlpha" type="matrix" values="0 0 0 0 0 0 0 0 0 0 0 0 0 0 0 0 0 0 127 0" result="hardAlpha"/>
<feOffset dy="1"/>
<feGaussianBlur stdDeviation="1"/>
<feComposite in2="hardAlpha" operator="out"/>
<feColorMatrix type="matrix" values="0 0 0 0 0 0 0 0 0 0 0 0 0 0 0 0 0 0 0.25 0"/>
<feBlend mode="normal" in2="BackgroundImageFix" result="effect1_dropShadow_77_79"/>
<feBlend mode="normal" in="SourceGraphic" in2="effect1_dropShadow_77_79" result="shape"/>
</filter>
</defs>
</svg>
