<svg width="304" height="100" viewBox="0 0 304 100" fill="none" xmlns="http://www.w3.org/2000/svg">
<path d="M3.8291 62.0049C2.64024 62.0729 1.36557 62.1094 0 62.1094V68.1094C1.40864 68.1094 2.74045 68.0716 4 68.0029V62C3.94335 62.0001 3.88636 62.0016 3.8291 62.0049Z" fill="#888888"/>
<path d="M298 0C301.314 2.92335e-05 304 2.68631 304 6L304 94C304 97.3135 301.314 100 298 100L10 100C6.68644 100 4.00025 97.3135 4 94L4 6C4 2.68629 6.68629 0 10 0L298 0ZM23 41C18.0294 41 14 45.0294 14 50C14 54.9706 18.0294 59 23 59C27.9706 59 32 54.9706 32 50C32 45.0294 27.9706 41 23 41Z" fill="#FF9951"/>
<path d="M292 6C295.314 6 298 8.68629 298 12V88C298 91.3137 295.314 94 292 94H16C12.6863 94 10 91.3137 10 88V12C10 8.68629 12.6863 6 16 6H292ZM23 41C18.0294 41 14 45.0294 14 50C14 54.9706 18.0294 59 23 59C27.9706 59 32 54.9706 32 50C32 45.0294 27.9706 41 23 41Z" fill="white"/>
<path d="M0 36C6.81944 36 13.203 37.3333 18.0322 39.7148C22.6357 41.9852 27 45.8759 27 51.4219C26.9999 54.8493 25.5389 57.3153 24 58.9873V58.9424C23.6716 58.9787 23.3381 59 23 59C20.0331 59 17.4037 57.5632 15.7646 55.3486L16.7812 54.6719C18.0712 53.8119 18.9999 52.8558 19 51.4219C19 50.5463 18.2149 48.7257 14.4941 46.8906C10.9991 45.167 5.88279 44 0 44V36Z" fill="#888888"/>
</svg>
